<?xml version="1.0" encoding="utf-8"?>
<!-- Generator: Adobe Illustrator 22.0.1, SVG Export Plug-In . SVG Version: 6.00 Build 0)  -->
<svg version="1.1" id="Camada_1" xmlns="http://www.w3.org/2000/svg" xmlns:xlink="http://www.w3.org/1999/xlink" x="0px" y="0px"
	 viewBox="0 0 538.6 538.6" style="enable-background:new 0 0 538.6 538.6;" xml:space="preserve">
<style type="text/css">
	.st0{fill:#FFFFFF;}
	.st1{fill:#5C888C;}
	.st2{fill:#CD834A;}
	.st3{fill:#79B09D;}
	.st4{fill:#E5CD5F;}
	.st5{fill:#DEB558;}
	.st6{fill:#9FC2A0;}
</style>
<circle class="st0" cx="269.3" cy="269.3" r="269.5"/>
<g>
	<polygon class="st1" points="196.3,408 204,408 192.1,443.6 185.1,443.7 172.9,408.2 180.8,408.2 188.6,435.1 	"/>
	
		<rect x="208" y="407.9" transform="matrix(1 -7.758293e-03 7.758293e-03 1 -3.2964 1.6549)" class="st1" width="7.4" height="35.6"/>
	<path class="st1" d="M245,408.6c1.3,0.6,2.4,1.4,3.3,2.5c0.8,0.9,1.4,1.9,1.8,3c0.4,1.1,0.7,2.3,0.7,3.7c0,1.7-0.4,3.3-1.2,5
		c-0.8,1.6-2.2,2.8-4.2,3.5c1.6,0.6,2.8,1.6,3.5,2.8c0.7,1.2,1,3.1,1.1,5.6v2.4c0,1.6,0.1,2.7,0.2,3.3c0.2,0.9,0.7,1.6,1.4,2v0.9
		l-8.2,0.1c-0.2-0.8-0.4-1.4-0.5-1.9c-0.2-1-0.3-2-0.3-3.1l-0.1-3.3c0-2.3-0.5-3.8-1.2-4.5c-0.8-0.7-2.2-1.1-4.2-1.1l-7.3,0.1
		l0.1,14h-7.3l-0.3-35.5l17-0.1C241.8,407.8,243.6,408,245,408.6 M229.6,414l0.1,9.6l8-0.1c1.6,0,2.8-0.2,3.6-0.6
		c1.4-0.7,2.1-2,2.1-4c0-2.2-0.7-3.6-2.1-4.3c-0.8-0.4-1.9-0.6-3.4-0.6H229.6z"/>
	
		<rect x="257.4" y="407.6" transform="matrix(1 -7.482005e-03 7.482005e-03 1 -3.1753 1.9651)" class="st1" width="7.4" height="35.5"/>
	<path class="st1" d="M281.6,407.4l8.4-0.1l12.8,35.5l-8.1,0.1l-2.4-7.3l-13.1,0.1l-2.4,7.3l-7.8,0.1L281.6,407.4z M281.4,429.5
		l9.1-0.1l-4.6-13.9L281.4,429.5z"/>
	<polygon class="st1" points="329.4,407 329.4,413.3 318.9,413.4 319,442.7 311.5,442.7 311.4,413.5 300.6,413.6 300.5,407.3 	"/>
	<path class="st1" d="M360.4,439.2c-2.7,2.8-6.5,4.2-11.6,4.2s-9-1.3-11.7-4.1c-3.6-3.4-5.5-8.2-5.5-14.6c0-6.5,1.7-11.4,5.3-14.7
		c2.7-2.8,6.5-4.2,11.6-4.2s9,1.3,11.7,4.1c3.6,3.2,5.4,8.1,5.5,14.6C365.8,430.9,364,435.8,360.4,439.2 M355.8,433.8
		c1.7-2.2,2.6-5.3,2.5-9.3c0-4-0.9-7.1-2.7-9.2c-1.7-2.2-4.1-3.2-7-3.2s-5.3,1.1-7,3.3c-1.7,2.2-2.6,5.3-2.6,9.3s0.9,7.1,2.7,9.2
		c1.8,2.2,4.1,3.2,7.1,3.2C351.8,437.1,354,436,355.8,433.8"/>
</g>
<g>
	<path class="st2" d="M221,351.7h0.1c0.1,0,0.2,0,0.3,0C221.3,351.7,221.1,351.7,221,351.7"/>
	<path class="st2" d="M223,351.7c-0.2,0-0.3,0-0.5,0C222.7,351.7,222.9,351.7,223,351.7"/>
	<path class="st2" d="M354.6,151.4L354.6,151.4l-55.8,6.6l0,0l0,0l-34.1,31.3v0.1l7.2,95.5l0,0l0.4,4.8l-0.4-4.8
		c1.5,19.6-1.7,34.2-7.9,44.7c0.3-0.4,0.6-0.9,0.9-1.4l0,0l0.2-0.3c1.2-1.9,2.3-3.8,3.3-5.9L368,141.9c0,0,0,0,0-0.1
		C365.4,146.8,360.5,150.5,354.6,151.4"/>
	<path class="st3" d="M224.8,101.1c-15.4,1.6-27.7,14-29,29.6l0,0C197.1,115.2,209.3,102.8,224.8,101.1"/>
	<path class="st3" d="M264.6,189.2l-2.2-27l-27.1,3.2c-1.9,0.4-3.9,0.7-6,0.8c-0.4,0-0.9,0-1.3,0l0,0c-18,0-32.6-14.6-32.6-32.6
		c0-1,0.1-1.9,0.1-2.8l0,0l-25.8,159.6c3.9-15,16.5-28.6,22.7-35L264.6,189.2z"/>
	<path class="st3" d="M220.9,351.7L220.9,351.7c-8.2,0-15.9-2-22.8-5.3C204.9,349.7,212.7,351.7,220.9,351.7"/>
	<path class="st3" d="M221,351.7h-0.1l0,0H221z"/>
	<path class="st1" d="M222.6,351.7c0.2,0,0.3,0,0.5,0c16.5-0.5,31.9-7.1,40.9-22.2c6.2-10.5,9.4-25.1,7.9-44.7l-7.2-95.5v-0.1
		l-72.1,66.1c-6.2,6.4-18.8,19.9-22.7,35c-0.8,3-1.2,6-1.2,9c0,20.7,12,38.5,29.3,47.1c6.9,3.4,14.6,5.3,22.8,5.3h0.1
		c0.1,0,0.3,0,0.4,0C221.8,351.7,222.2,351.7,222.6,351.7"/>
	<path class="st1" d="M271.9,284.7C271.9,284.8,271.9,284.8,271.9,284.7l0.4,4.8L271.9,284.7z"/>
	<path class="st4" d="M259.1,123.9c0.7,2.3,1.2,4.6,1.3,7.1v-0.3l0.1,1c0,0.1,0,0.1,0,0.2l2,29.9v0.3l36.2-4.2l0,0l0,0l0,0
		l40.2-36.9l0.9-0.9l0.9-0.8h0.1c3.1-2.4,6.8-3.9,11-3.9h-0.1l-116.3-13.6c-2.3-0.5-4.7-0.8-7.2-0.9h-0.1
		C242.8,101.1,255,110.7,259.1,123.9"/>
	<path class="st5" d="M340.9,119.3l-0.9,0.8l-0.9,0.9l-40.2,36.9l0,0l55.8-6.5v-0.1c5.9-0.9,10.8-4.6,13.4-9.7
		c1.2-2.4,1.9-5.2,1.9-8.1c0-4.9-2-9.4-5.2-12.7c-2.5-2.5-5.6-4.3-9.2-5c-1.2-0.2-2.4-0.4-3.6-0.4C347.8,115.5,344,117,340.9,119.3
		L340.9,119.3z"/>
	<path class="st6" d="M195.8,130.7c-0.1,0.9-0.1,1.9-0.1,2.9c0,18,14.6,32.6,32.6,32.6l0,0c0.4,0,0.9,0,1.3,0c2-0.1,4-0.4,6-0.8
		l27.1-3.2v-0.3l-2-29.9c0-0.1,0-0.1,0-0.2l-0.1-1v0.3c-0.2-2.4-0.6-4.8-1.3-7.1c-4.1-13.2-16.3-22.8-30.8-22.9h-0.3
		c-0.3,0-0.6,0-0.9,0c-0.8,0-1.5,0.1-2.2,0.1C209.3,102.8,197.1,115.2,195.8,130.7"/>
</g>
<g>
	<path class="st1" d="M181.5,387.5c0.9,0.3,1.5,1,2,1.7c0.5,0.7,0.9,1.5,1,2.4c0.1,0.5,0.1,1.4,0.1,2.3h-8.6c0,1.2,0.4,2,1.3,2.6
		c0.4,0.3,1.1,0.4,1.7,0.4c0.7,0,1.3-0.2,1.7-0.5c0.2-0.2,0.4-0.4,0.6-0.9h3.2c-0.1,0.7-0.4,1.4-1.2,2.1c-1.1,1.2-2.6,1.7-4.5,1.7
		c-1.6,0-3-0.4-4.2-1.5c-1.2-1-1.8-2.6-1.8-4.8c0-2,0.5-3.6,1.6-4.8c1.1-1.1,2.6-1.7,4.3-1.7C179.7,386.9,180.6,387,181.5,387.5
		 M176.8,390.1c-0.4,0.4-0.7,1.1-0.9,1.8h5.3c-0.1-0.9-0.3-1.5-0.9-1.9c-0.5-0.4-1.1-0.6-1.8-0.6
		C177.9,389.5,177.2,389.7,176.8,390.1"/>
	<path class="st1" d="M188.6,395.2c0.1,0.5,0.2,1,0.4,1.2c0.4,0.4,1.1,0.6,2.1,0.6c0.6,0,1.1-0.1,1.5-0.3c0.3-0.2,0.5-0.4,0.5-0.9
		c0-0.3-0.1-0.6-0.4-0.7c-0.3-0.2-1.4-0.5-3.3-1c-1.4-0.3-2.3-0.7-2.9-1.3s-0.9-1.2-0.9-2.1c0-1.1,0.4-2,1.3-2.9
		c0.9-0.7,2.1-1.2,3.6-1.2c1.5,0,2.7,0.3,3.6,0.9c1,0.6,1.5,1.6,1.6,3.1h-3.1c0-0.4-0.2-0.7-0.3-1c-0.3-0.4-1-0.6-1.8-0.6
		c-0.6,0-1.2,0.1-1.5,0.3c-0.3,0.2-0.4,0.4-0.4,0.7c0,0.3,0.1,0.6,0.4,0.7c0.3,0.2,1.4,0.4,3.3,0.9c1.3,0.3,2.1,0.7,2.8,1.3
		c0.6,0.6,1,1.4,1,2.2c0,1.2-0.4,2.1-1.3,2.9c-0.9,0.7-2.2,1.2-4,1.2c-1.9,0-3.3-0.4-4.2-1.2c-0.9-0.7-1.4-1.8-1.4-3L188.6,395.2z"
		/>
	<path class="st1" d="M205.8,391.4c-0.1-0.4-0.2-0.9-0.4-1.2c-0.3-0.5-0.9-0.7-1.6-0.7c-1.1,0-1.8,0.5-2.1,1.6
		c-0.2,0.5-0.3,1.3-0.3,2.2c0,0.9,0.1,1.6,0.3,2.1c0.4,1,1.1,1.5,2.1,1.5c0.7,0,1.3-0.2,1.6-0.6c0.3-0.4,0.5-1,0.5-1.5h3.2
		c-0.1,1-0.4,1.8-1.1,2.7c-1,1.4-2.4,2-4.4,2s-3.3-0.5-4.3-1.7c-1-1.2-1.4-2.6-1.4-4.4c0-2,0.5-3.6,1.5-4.8c1-1.2,2.3-1.7,4.2-1.7
		c1.5,0,2.8,0.3,3.7,1s1.5,1.8,1.7,3.5L205.8,391.4z"/>
	<path class="st1" d="M221,397.5c-1,1.3-2.6,1.9-4.6,1.9c-2,0-3.6-0.6-4.6-1.8c-1-1.3-1.5-2.8-1.5-4.5c0-1.7,0.5-3.2,1.5-4.5
		s2.6-1.9,4.6-1.9c2,0,3.6,0.6,4.6,1.9c1,1.3,1.5,2.8,1.5,4.5C222.5,394.7,222,396.2,221,397.5 M218.5,395.8
		c0.5-0.6,0.7-1.6,0.7-2.8c0-1.2-0.2-2.1-0.7-2.8c-0.5-0.6-1.2-1-2.1-1s-1.6,0.3-2.1,1c-0.5,0.6-0.7,1.6-0.7,2.8
		c0,1.2,0.2,2.1,0.7,2.8c0.5,0.6,1.2,1,2.1,1S218,396.4,218.5,395.8"/>
	
		<rect x="224.8" y="382.8" transform="matrix(1 -3.555209e-03 3.555209e-03 1 -1.388 0.8072)" class="st1" width="3.1" height="16.1"/>
	<path class="st1" d="M235.7,391.6c0.5-0.1,1-0.2,1.3-0.3c0.4-0.2,0.6-0.5,0.6-0.9c0-0.5-0.2-0.9-0.5-1c-0.3-0.2-0.9-0.3-1.5-0.3
		c-0.7,0-1.3,0.2-1.6,0.5c-0.2,0.3-0.3,0.6-0.4,1.1h-3c0.1-1.1,0.3-1.9,0.9-2.6c0.9-1.1,2.2-1.6,4.3-1.6c1.3,0,2.4,0.2,3.5,0.7
		s1.5,1.5,1.5,2.9v5.4c0,0.4,0,0.9,0,1.4c0,0.4,0.1,0.6,0.2,0.9c0.1,0.1,0.2,0.2,0.4,0.3v0.4h-3.4c-0.1-0.2-0.1-0.4-0.2-0.6
		c0-0.2-0.1-0.4-0.1-0.7c-0.4,0.4-1,0.9-1.5,1.2c-0.6,0.4-1.4,0.6-2.2,0.6c-1.1,0-2-0.3-2.7-1c-0.7-0.6-1.1-1.5-1.1-2.7
		c0-1.5,0.5-2.6,1.7-3.2c0.6-0.3,1.5-0.6,2.8-0.7L235.7,391.6z M237.6,393.1c-0.2,0.1-0.4,0.2-0.6,0.3c-0.2,0.1-0.5,0.1-0.9,0.2
		l-0.7,0.1c-0.6,0.1-1.2,0.2-1.4,0.4c-0.5,0.3-0.7,0.7-0.7,1.3s0.1,1,0.4,1.2c0.3,0.2,0.6,0.3,1.1,0.3c0.6,0,1.3-0.2,1.9-0.6
		c0.5-0.4,0.9-1.1,0.9-2.1L237.6,393.1z"/>
	<path class="st1" d="M253.3,395.3c0.1,0.5,0.2,1,0.4,1.2c0.4,0.4,1.1,0.6,2.1,0.6c0.6,0,1.1-0.1,1.5-0.3c0.3-0.2,0.5-0.4,0.5-0.9
		c0-0.3-0.1-0.6-0.4-0.7c-0.3-0.2-1.4-0.5-3.2-1c-1.4-0.3-2.2-0.7-2.9-1.3c-0.5-0.5-0.9-1.2-0.9-2.1c0-1.1,0.4-2,1.3-2.9
		c0.9-0.7,2-1.2,3.6-1.2c1.5,0,2.7,0.3,3.6,0.9c1,0.5,1.5,1.6,1.6,3.1h-3.1c0-0.4-0.1-0.7-0.3-1c-0.3-0.4-1-0.6-1.7-0.6
		c-0.6,0-1.2,0.1-1.4,0.3c-0.3,0.2-0.4,0.4-0.4,0.7s0.1,0.6,0.4,0.7c0.3,0.2,1.4,0.4,3.2,0.9c1.3,0.3,2.1,0.7,2.8,1.3
		c0.6,0.6,1,1.4,1,2.2c0,1.2-0.4,2.1-1.3,2.9c-0.9,0.7-2.2,1.2-4,1.2c-1.8,0-3.2-0.4-4.2-1.2c-0.9-0.7-1.4-1.8-1.4-3L253.3,395.3z"
		/>
	<path class="st1" d="M270.9,387.3c0.9,0.3,1.5,1,2,1.7c0.5,0.7,0.9,1.5,1,2.4c0.1,0.5,0.1,1.3,0.1,2.3h-8.6c0.1,1.2,0.4,2,1.3,2.6
		c0.4,0.3,1.1,0.4,1.7,0.4c0.7,0,1.3-0.2,1.7-0.5c0.2-0.2,0.4-0.4,0.6-0.9h3.2c-0.1,0.7-0.4,1.4-1.2,2.1c-1.1,1.2-2.6,1.7-4.5,1.8
		c-1.6,0-3-0.4-4.2-1.5c-1.2-1-1.8-2.6-1.8-4.8c0-2,0.5-3.6,1.6-4.8c1.1-1.1,2.4-1.7,4.3-1.7C269.1,386.8,270,387,270.9,387.3
		 M266.3,390c-0.4,0.4-0.7,1.1-0.9,1.8h5.3c-0.1-0.9-0.3-1.5-0.9-1.9c-0.5-0.4-1.1-0.6-1.8-0.6C267.4,389.4,266.7,389.6,266.3,390"
		/>
	<path class="st1" d="M282.6,391.3c-0.1-0.4-0.2-0.9-0.4-1.2c-0.3-0.5-0.9-0.7-1.6-0.7c-1.1,0-1.7,0.5-2.1,1.6
		c-0.2,0.5-0.3,1.3-0.3,2.2c0,0.9,0.1,1.6,0.3,2.1c0.4,1,1.1,1.5,2.1,1.5c0.7,0,1.3-0.2,1.5-0.6c0.3-0.4,0.5-0.9,0.5-1.5h3.2
		c-0.1,1-0.4,1.8-1,2.7c-1,1.4-2.3,2-4.3,2c-1.9,0-3.3-0.5-4.2-1.7c-0.9-1.2-1.4-2.6-1.4-4.4c0-2,0.5-3.6,1.5-4.8
		c1-1.2,2.3-1.7,4-1.7c1.5,0,2.7,0.3,3.6,1c1,0.6,1.5,1.8,1.7,3.5L282.6,391.3z"/>
	<path class="st1" d="M290.9,387v7.1c0,0.6,0.1,1.2,0.2,1.5c0.3,0.6,0.9,1,1.6,0.9c1.1,0,1.8-0.4,2.1-1.3c0.2-0.4,0.3-1.1,0.3-1.8
		v-6.5h3.1v11.9h-3v-1.7c0,0-0.1,0.1-0.2,0.3c-0.1,0.2-0.2,0.3-0.4,0.5c-0.5,0.4-1,0.7-1.4,0.9c-0.4,0.2-1,0.2-1.6,0.2
		c-1.7,0-2.9-0.6-3.5-1.9c-0.3-0.7-0.5-1.7-0.5-3.1v-7.1L290.9,387z"/>
	<path class="st1" d="M310.9,387.7c0.7,0.6,1.2,1.7,1.2,3.2v8h-3.2v-7.2c0-0.6-0.1-1.1-0.2-1.5c-0.3-0.6-0.9-1-1.7-1
		c-1.1,0-1.7,0.4-2.1,1.4c-0.2,0.4-0.3,1.1-0.3,1.8v6.5h-3.1v-11.9h3v1.7c0.4-0.6,0.7-1.1,1.1-1.3c0.6-0.5,1.4-0.7,2.4-0.7
		C309.1,386.7,310.1,387,310.9,387.7"/>
	<path class="st1" d="M321.1,387.1c0.5,0.3,1.1,0.7,1.4,1.3v-5.6h3.1l0.1,16.1h-3v-1.7c-0.4,0.7-1,1.2-1.5,1.6
		c-0.5,0.3-1.3,0.5-2.1,0.5c-1.4,0-2.6-0.5-3.5-1.7c-1-1.2-1.4-2.6-1.4-4.4c0-2,0.4-3.6,1.4-4.8c1-1.2,2.1-1.7,3.7-1.8
		C320,386.6,320.6,386.8,321.1,387.1 M322,395.5c0.4-0.6,0.6-1.5,0.6-2.6c0-1.5-0.4-2.4-1.1-3.1c-0.4-0.4-1-0.5-1.6-0.5
		c-0.9,0-1.6,0.3-2,1.1c-0.4,0.6-0.6,1.6-0.6,2.6c0,1.1,0.2,2,0.6,2.7c0.4,0.6,1.1,1,1.9,1C320.8,396.5,321.5,396.2,322,395.5"/>
	<path class="st1" d="M333.2,391.5c0.5-0.1,1-0.2,1.3-0.3c0.4-0.2,0.6-0.5,0.6-0.9c0-0.5-0.2-0.9-0.5-1c-0.3-0.2-0.9-0.3-1.5-0.3
		c-0.7,0-1.3,0.2-1.6,0.5c-0.2,0.3-0.3,0.6-0.4,1.1h-3c0.1-1.1,0.3-1.9,0.9-2.6c0.9-1.1,2.2-1.6,4.3-1.6c1.3,0,2.4,0.2,3.4,0.7
		c1,0.5,1.5,1.5,1.5,2.9v5.4c0,0.4,0,0.9,0,1.4c0,0.4,0.1,0.6,0.2,0.9c0.1,0.1,0.2,0.2,0.4,0.3v0.4h-3.3c-0.1-0.2-0.2-0.4-0.2-0.6
		s-0.1-0.4-0.1-0.7c-0.4,0.4-1,0.9-1.5,1.2c-0.6,0.4-1.4,0.5-2.2,0.6c-1.1,0-1.9-0.3-2.7-1s-1.1-1.5-1.1-2.7c0-1.5,0.5-2.6,1.7-3.2
		c0.6-0.3,1.5-0.6,2.8-0.7L333.2,391.5z M335,393c-0.2,0.1-0.4,0.2-0.6,0.3c-0.2,0.1-0.4,0.1-0.9,0.2l-0.7,0.1
		c-0.6,0.1-1.2,0.2-1.4,0.4c-0.5,0.3-0.7,0.7-0.7,1.3s0.1,1,0.4,1.2c0.3,0.2,0.6,0.3,1.1,0.3c0.6,0,1.3-0.2,1.8-0.6
		c0.5-0.4,0.9-1.1,0.9-2.1L335,393z M336.9,381.9l-3.3,3.3h-2.2l2-3.3H336.9z"/>
	<path class="st1" d="M347.3,386.5c0,0,0.1,0,0.2,0v3.2c-0.2,0-0.3,0-0.5,0c-0.1,0-0.3,0-0.3,0c-1.3,0-2,0.4-2.4,1.3
		c-0.2,0.4-0.3,1.2-0.3,2.1v5.6h-3.1v-11.9h3v2.1c0.4-0.7,0.9-1.4,1.3-1.6C345.6,386.8,346.4,386.6,347.3,386.5
		C347.2,386.5,347.2,386.5,347.3,386.5"/>
	<path class="st1" d="M352.5,385.3h-3.1v-2.9h3.1V385.3z M349.5,386.8h3.1l0.1,11.9h-3.1L349.5,386.8z"/>
	<path class="st1" d="M360.2,391.4c0.5-0.1,1-0.2,1.3-0.3c0.4-0.2,0.6-0.5,0.6-0.9c0-0.5-0.2-0.9-0.5-1c-0.3-0.2-0.9-0.3-1.5-0.3
		c-0.7,0-1.3,0.2-1.6,0.5c-0.2,0.3-0.3,0.6-0.4,1.1h-3c0.1-1.1,0.3-1.9,0.9-2.6c0.9-1.1,2.2-1.6,4.2-1.6c1.3,0,2.4,0.2,3.5,0.7
		c1,0.5,1.5,1.5,1.5,2.9v5.4c0,0.4,0,0.9,0,1.4c0,0.4,0.1,0.6,0.2,0.9c0.1,0.1,0.2,0.2,0.4,0.3v0.4h-3.3c-0.1-0.2-0.2-0.4-0.2-0.6
		s-0.1-0.4-0.1-0.7c-0.4,0.4-1,0.9-1.5,1.2c-0.6,0.4-1.4,0.5-2.2,0.6c-1.1,0-1.9-0.3-2.7-1s-1.1-1.5-1.1-2.7c0-1.5,0.5-2.6,1.7-3.2
		c0.6-0.3,1.5-0.6,2.8-0.7L360.2,391.4z M362.1,392.9c-0.2,0.1-0.4,0.2-0.6,0.3c-0.2,0.1-0.4,0.1-0.9,0.2l-0.7,0.1
		c-0.6,0.1-1.2,0.2-1.4,0.4c-0.5,0.3-0.7,0.7-0.7,1.3s0.1,1,0.4,1.2c0.3,0.2,0.6,0.3,1.1,0.3c0.6,0,1.3-0.2,1.8-0.6
		c0.5-0.4,0.9-1.1,0.9-2.1L362.1,392.9z"/>
</g>
</svg>
